<svg xmlns="http://www.w3.org/2000/svg" xmlns:xlink="http://www.w3.org/1999/xlink" width="20.063" height="20.063" viewBox="0 0 20.063 20.063">
  <defs>
    <linearGradient id="linear-gradient" x1="0.5" y1="-0.155" x2="0.5" y2="1.166" gradientUnits="objectBoundingBox">
      <stop offset="0" stop-color="#15afb7"/>
      <stop offset="1" stop-color="#1a3fcf"/>
    </linearGradient>
  </defs>
  <path id="about" d="M10.031,0A10.031,10.031,0,1,0,20.063,10.031,10.043,10.043,0,0,0,10.031,0Zm.653,15.983c-.477.079-1.425.278-1.906.318a1.174,1.174,0,0,1-1.027-.535A1.254,1.254,0,0,1,7.6,14.618L9.495,9.4H7.523A2.357,2.357,0,0,1,9.379,7.212,7.259,7.259,0,0,1,11.285,6.9a1.512,1.512,0,0,1,1.027.535,1.254,1.254,0,0,1,.152,1.148l-1.9,5.214h1.971a2.22,2.22,0,0,1-1.855,2.19Zm.6-9.714a1.254,1.254,0,1,1,1.254-1.254A1.254,1.254,0,0,1,11.285,6.27Z" fill="url(#linear-gradient)"/>
</svg>
