<svg xmlns="http://www.w3.org/2000/svg" xmlns:xlink="http://www.w3.org/1999/xlink" width="22.152" height="21.197" viewBox="0 0 22.152 21.197">
  <defs>
    <linearGradient id="linear-gradient" x1="0.5" y1="-0.149" x2="0.5" y2="1.161" gradientUnits="objectBoundingBox">
      <stop offset="0" stop-color="#15afb7"/>
      <stop offset="1" stop-color="#1a3fcf"/>
    </linearGradient>
  </defs>
  <g id="logout" transform="translate(0.313 -6.2)">
    <g id="Group_1162" data-name="Group 1162" transform="translate(0 6.5)">
      <g id="Group_1161" data-name="Group 1161" transform="translate(0)">
        <path id="Union_58" data-name="Union 58" d="M666.678-2416.383a.477.477,0,0,1-.126-.637l1.658-2.69a.474.474,0,0,1,.314-.218.474.474,0,0,1,.373.082,5.978,5.978,0,0,0,3.532,1.145,6.029,6.029,0,0,0,6.022-6.022,6.028,6.028,0,0,0-6.022-6.022,5.976,5.976,0,0,0-3.532,1.145.477.477,0,0,1-.373.081.473.473,0,0,1-.314-.218l-1.658-2.69a.477.477,0,0,1,.126-.637,10.22,10.22,0,0,1,6.041-1.958,10.31,10.31,0,0,1,10.3,10.3,10.31,10.31,0,0,1-10.3,10.3A10.22,10.22,0,0,1,666.678-2416.383Zm-2.3-4.226a.477.477,0,0,1-.4-.213l-2.425-3.637a.477.477,0,0,1,0-.53l2.425-3.637a.475.475,0,0,1,.4-.212h3.233a.478.478,0,0,1,.421.252.478.478,0,0,1-.023.49l-1.121,1.682h6.786a1.691,1.691,0,0,1,1.689,1.69,1.691,1.691,0,0,1-1.689,1.689h-6.786l1.121,1.682a.478.478,0,0,1,.023.49.477.477,0,0,1-.421.253Z" transform="translate(-661.477 2435.022)" stroke="#fff" stroke-width="0.6" fill="url(#linear-gradient)"/>
      </g>
    </g>
  </g>
</svg>
