<svg xmlns="http://www.w3.org/2000/svg" xmlns:xlink="http://www.w3.org/1999/xlink" width="20.063" height="13.587" viewBox="0 0 20.063 13.587">
  <defs>
    <linearGradient id="linear-gradient" x1="0.5" y1="-0.162" x2="0.5" y2="1.07" gradientUnits="objectBoundingBox">
      <stop offset="0" stop-color="#15afb7"/>
      <stop offset="1" stop-color="#1a3fcf"/>
    </linearGradient>
  </defs>
  <g id="medicine" transform="translate(0 0)">
    <path id="Union_43" data-name="Union 43" d="M10.962,13.587A4.442,4.442,0,0,1,7.79,12.275,4.48,4.48,0,0,1,6.5,9.588,5.287,5.287,0,0,0,7.631,9a3.335,3.335,0,0,0,.614,2.036,3.338,3.338,0,0,0,5.073.429l0,0L15.6,9.182,10.881,4.465,9.863,5.483a5.3,5.3,0,0,0,.022-1.652L12.4,1.314l0,0A4.5,4.5,0,0,1,15.578,0a4.541,4.541,0,0,1,3.167,1.3l0,0a4.5,4.5,0,0,1,0,6.356l-4.613,4.613,0,0a4.441,4.441,0,0,1-3.163,1.31ZM3.607,9.108,6.523.416A4.608,4.608,0,0,1,3.607,9.108ZM.241,3.143A4.609,4.609,0,0,1,5.613.111L2.7,8.8A4.609,4.609,0,0,1,.241,3.143Z" transform="translate(0 0)" fill="url(#linear-gradient)"/>
  </g>
</svg>
