<svg xmlns="http://www.w3.org/2000/svg" xmlns:xlink="http://www.w3.org/1999/xlink" width="17.825" height="18.193" viewBox="0 0 17.825 18.193">
  <defs>
    <linearGradient id="linear-gradient" x1="0.5" y1="-0.17" x2="0.5" y2="1.189" gradientUnits="objectBoundingBox">
      <stop offset="0" stop-color="#15afb7"/>
      <stop offset="1" stop-color="#1a3fcf"/>
    </linearGradient>
  </defs>
  <g id="offer" transform="translate(-4.92 0)">
    <path id="Union_55" data-name="Union 55" d="M669.094-2125.178l-.309-.347a1.182,1.182,0,0,0-1.35-.3l-.428.183a1.181,1.181,0,0,1-1.607-.757l-.13-.447a1.188,1.188,0,0,0-1.089-.853l-.465-.019a1.184,1.184,0,0,1-1.119-1.38l.078-.458a1.181,1.181,0,0,0-.607-1.241l-.41-.22a1.186,1.186,0,0,1-.41-1.73l.268-.38a1.187,1.187,0,0,0-.012-1.383l-.275-.376a1.183,1.183,0,0,1,.38-1.733l.407-.228a1.18,1.18,0,0,0,.589-1.248l-.086-.459a1.184,1.184,0,0,1,1.1-1.4l.465-.026a1.176,1.176,0,0,0,1.074-.868l.123-.451a1.187,1.187,0,0,1,1.6-.783l.432.179a1.184,1.184,0,0,0,1.346-.317l.306-.35a1.182,1.182,0,0,1,1.775-.015l.309.346a1.18,1.18,0,0,0,1.35.3l.428-.182a1.181,1.181,0,0,1,1.607.756l.13.448a1.189,1.189,0,0,0,1.089.854l.465.019a1.183,1.183,0,0,1,1.119,1.379l-.078.458a1.182,1.182,0,0,0,.607,1.242l.41.219a1.186,1.186,0,0,1,.409,1.73l-.268.381a1.185,1.185,0,0,0,.012,1.382l.275.377a1.183,1.183,0,0,1-.38,1.733l-.407.227a1.182,1.182,0,0,0-.589,1.249l.086.458a1.183,1.183,0,0,1-1.1,1.4l-.465.026a1.177,1.177,0,0,0-1.074.869l-.123.452a1.186,1.186,0,0,1-1.6.782l-.432-.179a1.185,1.185,0,0,0-1.346.318l-.306.35a1.172,1.172,0,0,1-.892.409A1.185,1.185,0,0,1,669.094-2125.178Zm1.4-7.161a1.833,1.833,0,0,0,1.833,1.834,1.833,1.833,0,0,0,1.834-1.834,1.833,1.833,0,0,0-1.834-1.834A1.832,1.832,0,0,0,670.493-2132.339Zm1.476-4.723-4.812,5.8a.449.449,0,0,0,.059.63.449.449,0,0,0,.63-.059l4.812-5.8a.449.449,0,0,0-.059-.63.448.448,0,0,0-.285-.1A.446.446,0,0,0,671.969-2137.063Zm-6.312,1.636a1.835,1.835,0,0,0,1.834,1.834,1.832,1.832,0,0,0,1.834-1.834,1.833,1.833,0,0,0-1.834-1.834A1.834,1.834,0,0,0,665.657-2135.427Zm5.909,3.087a.761.761,0,0,1,.76-.76.761.761,0,0,1,.76.76.76.76,0,0,1-.76.76A.761.761,0,0,1,671.566-2132.339Zm-4.831-3.087a.761.761,0,0,1,.76-.76.761.761,0,0,1,.76.76.76.76,0,0,1-.76.76A.761.761,0,0,1,666.734-2135.427Z" transform="translate(-656.081 2142.977)" fill="url(#linear-gradient)"/>
  </g>
</svg>
