<svg xmlns="http://www.w3.org/2000/svg" xmlns:xlink="http://www.w3.org/1999/xlink" width="19.063" height="19.208" viewBox="0 0 19.063 19.208">
  <defs>
    <linearGradient id="linear-gradient" x1="0.5" y1="-0.226" x2="0.5" y2="1.17" gradientUnits="objectBoundingBox">
      <stop offset="0" stop-color="#15afb7"/>
      <stop offset="1" stop-color="#1a3fcf"/>
    </linearGradient>
  </defs>
  <g id="prescription_upload_icon" transform="translate(-397.506 -608.5)">
    <path id="Union_42" data-name="Union 42" d="M12.819,19.208a3.051,3.051,0,0,1-2.176-.9,2.974,2.974,0,0,1-.333-.394,3.075,3.075,0,0,1,.334-3.961l3.165-3.165v0a3.1,3.1,0,0,1,2.177-.9,3.124,3.124,0,0,1,2.173.894l0,0a3.088,3.088,0,0,1,0,4.361L15,18.307l0,0a3.041,3.041,0,0,1-2.169.9Zm1.617-1.457,0,0L16,16.185l-3.237-3.237L11.2,14.51a2.287,2.287,0,0,0-.248,2.946,2.226,2.226,0,0,0,.247.292,2.292,2.292,0,0,0,3.234,0ZM1.581,16.925A1.586,1.586,0,0,1,0,15.341V1.585A1.586,1.586,0,0,1,1.581,0H15.336a1.587,1.587,0,0,1,1.588,1.585v7.23a4.237,4.237,0,0,0-.93-.115H15.98a4.288,4.288,0,0,0-2.617.9L9.8,13.113a4.243,4.243,0,0,0-1.16,3.812Zm1.073-7.43a.554.554,0,0,0,.55.549h7.668a.549.549,0,0,0,0-1.1H3.2A.554.554,0,0,0,2.654,9.495Zm0-2.635a.555.555,0,0,0,.55.549H8.468a.549.549,0,0,0,0-1.1H3.2A.553.553,0,0,0,2.654,6.86Zm0-2.635a.555.555,0,0,0,.55.549h3.78a.549.549,0,0,0,0-1.1H3.2A.554.554,0,0,0,2.654,4.225Z" transform="translate(397.506 608.5)" fill="url(#linear-gradient)"/>
  </g>
</svg>
