<svg xmlns="http://www.w3.org/2000/svg" xmlns:xlink="http://www.w3.org/1999/xlink" width="16.403" height="15.828" viewBox="0 0 16.403 15.828">
  <defs>
    <linearGradient id="linear-gradient" x1="0.5" y1="-0.294" x2="0.5" y2="1.234" gradientUnits="objectBoundingBox">
      <stop offset="0" stop-color="#15afb7"/>
      <stop offset="1" stop-color="#1a3fcf"/>
    </linearGradient>
  </defs>
  <path id="profile" d="M702.69-1520.173h-3.763a1.937,1.937,0,0,1-1.493-.691,1.844,1.844,0,0,1-.393-1.574,8.032,8.032,0,0,1,2.843-4.567,8.335,8.335,0,0,1,2.661-1.424,4.164,4.164,0,0,1-1.735-3.367,4.267,4.267,0,0,1,4.318-4.2h.147a4.267,4.267,0,0,1,4.318,4.2,4.166,4.166,0,0,1-1.735,3.367,8.327,8.327,0,0,1,2.661,1.424,8.032,8.032,0,0,1,2.843,4.567,1.84,1.84,0,0,1-.393,1.574,1.937,1.937,0,0,1-1.493.691Zm8.786-1.236a.651.651,0,0,0,.508-.235.634.634,0,0,0,.135-.542,6.823,6.823,0,0,0-3.325-4.48.648.648,0,0,1-.271-.077,7.136,7.136,0,0,0-3.168-.85h-.3a7.137,7.137,0,0,0-3.168.85.642.642,0,0,1-.271.077,6.822,6.822,0,0,0-3.325,4.48.632.632,0,0,0,.135.542.65.65,0,0,0,.508.235h12.549Z" transform="translate(-697 1536)" fill="url(#linear-gradient)"/>
</svg>
