<svg xmlns="http://www.w3.org/2000/svg" xmlns:xlink="http://www.w3.org/1999/xlink" width="18.227" height="18.227" viewBox="0 0 18.227 18.227">
  <defs>
    <linearGradient id="linear-gradient" x1="0.5" y1="-0.294" x2="0.5" y2="1.234" gradientUnits="objectBoundingBox">
      <stop offset="0" stop-color="#15afb7"/>
      <stop offset="1" stop-color="#1a3fcf"/>
    </linearGradient>
  </defs>
  <path id="refer" d="M8.931,9.68c.06,0,.121,0,.181,0s.113,0,.169,0a7.84,7.84,0,0,1,3.637.981.712.712,0,1,0,.693-1.244,9.193,9.193,0,0,0-1.6-.7,4.841,4.841,0,1,0-5.794,0,9.258,9.258,0,0,0-6.171,6.9,2.163,2.163,0,0,0,2.114,2.609H7.724a.712.712,0,0,0,0-1.424H2.159a.724.724,0,0,1-.57-.271.744.744,0,0,1-.151-.624A7.866,7.866,0,0,1,8.931,9.68Zm9.295,3.557A1.76,1.76,0,0,1,17.7,14.5l-1.324,1.317a.712.712,0,1,1-1-1.01l.888-.883H12.227a1.441,1.441,0,0,0-.017,2.883.712.712,0,0,1,0,1.424,2.82,2.82,0,0,1-2.02-.842A2.872,2.872,0,0,1,12.227,12.5H16.2l-.821-.812a.712.712,0,0,1,1-1.012L17.7,11.98a1.76,1.76,0,0,1,.527,1.257Zm0,0" transform="translate(0.001 -0.001)" fill="url(#linear-gradient)"/>
</svg>
