<svg xmlns="http://www.w3.org/2000/svg" width="41.407" height="47" viewBox="0 0 41.407 47">
  <g id="save-money" transform="translate(-0.361)">
    <path id="Path_1613" data-name="Path 1613" d="M94.922,350.945l6.765-3.2A3.128,3.128,0,0,1,105.82,349L92.07,357.9a9.448,9.448,0,0,1-5.9.668L76.687,355.9a3.511,3.511,0,0,0-2.606.285L72.1,357.251l.267-9.672.079,0a9.279,9.279,0,0,1,9.643-.675l.568.294a6.623,6.623,0,0,0,2.867.74l5.575.154a4.147,4.147,0,0,1,3.827,2.851Zm0,0" transform="translate(-64.824 -312.535)" fill="#f7caa5"/>
    <path id="Path_1614" data-name="Path 1614" d="M133,124.9A10.409,10.409,0,1,1,122.6,114.488,10.409,10.409,0,0,1,133,124.9Zm0,0" transform="translate(-101.05 -103.455)" fill="#fedb41"/>
    <path id="Path_1615" data-name="Path 1615" d="M14.5,346.854l-.03,1.089-6.113-.167.369-13.415,6.114.168-.073,2.654Zm0,0" transform="translate(-7.228 -302.138)" fill="#00efd1"/>
    <g id="Group_1148" data-name="Group 1148" transform="translate(0.361)">
      <path id="Path_1617" data-name="Path 1617" d="M104.188,117.668a11.18,11.18,0,1,0,11.18-11.18A11.18,11.18,0,0,0,104.188,117.668Zm11.18-9.638a9.638,9.638,0,1,1-9.638,9.638A9.638,9.638,0,0,1,115.368,108.03Zm0,0" transform="translate(-94.182 -96.226)" fill="#083863"/>
      <path id="Path_1618" data-name="Path 1618" d="M36.526,329.428l-6.038,2.852a4.93,4.93,0,0,0-4.195-2.585l-5.575-.154a5.893,5.893,0,0,1-2.533-.654l-.567-.294a10,10,0,0,0-9.268.009l.035-1.285a.771.771,0,0,0-.749-.792l-6.114-.168a.77.77,0,0,0-.792.749L.361,340.522a.771.771,0,0,0,.749.792l6.113.168h.021a.771.771,0,0,0,.77-.75l.018-.641,1.589-.85a2.728,2.728,0,0,1,2.033-.222l9.484,2.661.05.012a10.163,10.163,0,0,0,2.085.215,10.278,10.278,0,0,0,4.3-.938.815.815,0,0,0,.1-.053l13.751-8.895A.771.771,0,0,0,41.668,331a3.894,3.894,0,0,0-5.142-1.567ZM6.513,339.6l-.014.318-4.573-.125.325-11.874,4.576.125Zm20.362-.009a8.734,8.734,0,0,1-5.345.6l-9.458-2.655a4.264,4.264,0,0,0-3.177.348l-.812.435.218-7.9a8.473,8.473,0,0,1,8.609-.459l.568.294a7.433,7.433,0,0,0,3.2.826l5.575.154a3.382,3.382,0,0,1,3.116,2.322,3.419,3.419,0,0,1,.1.372l-8.3-.229a.771.771,0,0,0-.043,1.542l9.164.252H30.3a.771.771,0,0,0,.771-.75,4.949,4.949,0,0,0-.075-1l6.194-2.926.018-.009a2.355,2.355,0,0,1,2.664.373Zm0,0" transform="translate(-0.361 -294.907)" fill="#083863"/>
      <path id="Path_1619" data-name="Path 1619" d="M213.741,8.095V.771a.771.771,0,1,0-1.542,0V8.095a.771.771,0,0,0,1.542,0Zm0,0" transform="translate(-191.785)" fill="#083863"/>
      <path id="Path_1620" data-name="Path 1620" d="M273.741,44.24V40.771a.771.771,0,0,0-1.542,0V44.24a.771.771,0,0,0,1.542,0Zm0,0" transform="translate(-246.003 -36.145)" fill="#083863"/>
      <path id="Path_1621" data-name="Path 1621" d="M153.741,44.24V40.771a.771.771,0,0,0-1.542,0V44.24a.771.771,0,0,0,1.542,0Zm0,0" transform="translate(-137.567 -36.145)" fill="#083863"/>
      <text id="_" data-name="?" transform="translate(16.657 28)" fill="#083863" font-size="16" font-family="Anuradha"><tspan x="0" y="0">?</tspan></text>
    </g>
  </g>
</svg>
