<svg xmlns="http://www.w3.org/2000/svg" xmlns:xlink="http://www.w3.org/1999/xlink" width="20.063" height="19.654" viewBox="0 0 20.063 19.654">
  <defs>
    <linearGradient id="linear-gradient" x1="0.5" y1="-0.164" x2="0.5" y2="1.207" gradientUnits="objectBoundingBox">
      <stop offset="0" stop-color="#15afb7"/>
      <stop offset="1" stop-color="#1a3fcf"/>
    </linearGradient>
  </defs>
  <g id="setting" transform="translate(0 -3.762)">
    <g id="Group_1160" data-name="Group 1160" transform="translate(0 3.762)">
      <g id="Group_1159" data-name="Group 1159" transform="translate(0 0)">
        <path id="Path_1636" data-name="Path 1636" d="M17.406,11.177l-.1-.034-.373-.89.04-.091c1.129-2.561,1.051-2.637.864-2.823L16.336,5.87a.4.4,0,0,0-.263-.1,9.628,9.628,0,0,0-2.566,1.007l-.089.04-.918-.37-.037-.091c-1.046-2.59-1.153-2.59-1.414-2.59H8.923c-.259,0-.377,0-1.347,2.595l-.037.094-.913.372-.087-.036A14.057,14.057,0,0,0,3.925,5.83a.4.4,0,0,0-.263.1L2.154,7.407c-.191.189-.271.268.918,2.775l.044.093-.373.889-.091.035C0,12.223,0,12.323,0,12.59v2.084c0,.268,0,.379,2.656,1.331l.095.034.373.886-.04.091c-1.129,2.562-1.058,2.631-.865,2.823l1.5,1.471a.414.414,0,0,0,.265.1,9.663,9.663,0,0,0,2.566-1.007l.089-.042.918.371.036.092c1.047,2.589,1.154,2.589,1.415,2.589H11.14c.267,0,.378,0,1.349-2.6l.036-.095.914-.37.087.035a13.979,13.979,0,0,0,2.611.958.4.4,0,0,0,.265-.1l1.51-1.477c.19-.19.269-.267-.921-2.772l-.044-.094.373-.885.089-.035c2.655-1.03,2.655-1.13,2.655-1.4V12.5C20.063,12.236,20.063,12.125,17.406,11.177ZM10.031,16.97a3.38,3.38,0,1,1,3.446-3.38A3.418,3.418,0,0,1,10.031,16.97Z" transform="translate(0 -3.762)" fill="url(#linear-gradient)"/>
      </g>
    </g>
  </g>
</svg>
