<svg xmlns="http://www.w3.org/2000/svg" xmlns:xlink="http://www.w3.org/1999/xlink" width="19.759" height="19.759" viewBox="0 0 19.759 19.759">
  <defs>
    <linearGradient id="linear-gradient" x1="0.5" y1="-0.184" x2="0.5" y2="1.211" gradientUnits="objectBoundingBox">
      <stop offset="0" stop-color="#15afb7"/>
      <stop offset="1" stop-color="#1a3fcf"/>
    </linearGradient>
  </defs>
  <g id="share" transform="translate(0.3 0.3)">
    <path id="Union_57" data-name="Union 57" d="M11.975,15.567a3.6,3.6,0,0,1,3.592-3.593,3.437,3.437,0,0,1,.363.037,5.663,5.663,0,0,0,.237-1.534,5.639,5.639,0,0,0-.71-2.7,4.8,4.8,0,0,0,1.8-1.707,8.064,8.064,0,0,1,.883,6.993,3.59,3.59,0,1,1-6.16,2.5ZM3.388,14.349a3.6,3.6,0,1,1,2.364-.72,5.671,5.671,0,0,0,4.725,2.537c.121,0,.236-.03.356-.037a4.745,4.745,0,0,0,.931,2.319,8.153,8.153,0,0,1-1.287.113A8.066,8.066,0,0,1,3.388,14.349ZM9.813,4.831A5.7,5.7,0,0,0,6.189,6.764,4.747,4.747,0,0,0,3.769,6,8.076,8.076,0,0,1,9.787,2.439a3.586,3.586,0,1,1,.026,2.392Z" transform="translate(0)" stroke="#fff" stroke-width="0.6" fill="url(#linear-gradient)"/>
  </g>
</svg>
