<svg xmlns="http://www.w3.org/2000/svg" xmlns:xlink="http://www.w3.org/1999/xlink" width="22.573" height="22" viewBox="0 0 22.573 22">
  <defs>
    <linearGradient id="linear-gradient" x1="0.5" x2="0.5" y2="1" gradientUnits="objectBoundingBox">
      <stop offset="0" stop-color="#15afb7"/>
      <stop offset="1" stop-color="#1a3fcf"/>
    </linearGradient>
  </defs>
  <g id="hospitals" transform="translate(0.001 -0.5)">
    <path id="Path_56" data-name="Path 56" d="M17.943,3.145H15.866a5.288,5.288,0,0,0-9.161,0H4.628A4.634,4.634,0,0,0,0,7.775a.661.661,0,0,0,.661.661H2.027v13.4a.661.661,0,0,0,.661.661H19.883a.661.661,0,0,0,.661-.661V8.436h1.367a.661.661,0,0,0,.661-.661,4.634,4.634,0,0,0-4.629-4.629ZM11.286,1.823a3.967,3.967,0,0,1,3.6,5.636c-.011.02-.021.041-.03.063a3.968,3.968,0,1,1-3.57-5.7ZM4.629,4.468H6.163a5.309,5.309,0,0,0,0,2.645H1.388a3.312,3.312,0,0,1,3.24-2.645ZM9.963,18.532h.661v2.645H7.979V14.564h2.645v2.645H9.963a.661.661,0,0,0,0,1.323Zm1.984,2.645V18.532h.661a.661.661,0,0,0,0-1.323h-.661V14.564h2.645v6.613Zm7.275,0H15.915V13.9a.661.661,0,0,0-.661-.661H7.318a.661.661,0,0,0-.661.661v7.275H3.35V8.436H6.705a5.288,5.288,0,0,0,9.161,0h3.356ZM16.409,7.113a5.309,5.309,0,0,0,0-2.645h1.534a3.312,3.312,0,0,1,3.24,2.645Zm0,0" transform="translate(0 0)" fill="url(#linear-gradient)"/>
    <path id="Path_57" data-name="Path 57" d="M195.692,62.881h1.365v1.365a.661.661,0,1,0,1.323,0V62.881h1.365a.661.661,0,0,0,0-1.323H198.38V60.193a.661.661,0,1,0-1.323,0v1.365h-1.365a.661.661,0,1,0,0,1.323Zm0,0" transform="translate(-186.433 -56.429)" fill="url(#linear-gradient)"/>
  </g>
</svg>
