<svg xmlns="http://www.w3.org/2000/svg" width="160.333" height="166.171" viewBox="0 0 160.333 166.171">
  <g id="idea" transform="translate(-953.922 -944)">
    <rect id="Rectangle_594" data-name="Rectangle 594" width="160.333" height="1.857" transform="translate(953.922 1085.781)" fill="#96e3fe"/>
    <g id="Group_156" data-name="Group 156" transform="translate(963.678 944)">
      <rect id="Rectangle_595" data-name="Rectangle 595" width="14.083" height="8.45" transform="translate(56.328 109.842)" fill="#3b6bb2"/>
      <path id="Path_227" data-name="Path 227" d="M1178.848,1059.867a60.686,60.686,0,1,0-79.007,79.055,60.592,60.592,0,0,0,45.526,0A60.707,60.707,0,0,0,1178.848,1059.867Z" transform="translate(-1052.196 -1012.243)" fill="#f2fcff"/>
      <path id="Path_222" data-name="Path 222" d="M1214.531,1290.23h-14.082v-8.45h14.082" transform="translate(-1130.037 -1171.939)" fill="#3b6bb2"/>
      <path id="Path_223" data-name="Path 223" d="M1139.82,1339.379a5.632,5.632,0,0,0,5.633,5.633h28.165a5.633,5.633,0,0,0,0-11.266h-28.165a5.633,5.633,0,0,0-5.633,5.633Zm0,0" transform="translate(-1089.124 -1207.006)" fill="#4e4e4e"/>
      <path id="Path_224" data-name="Path 224" d="M1139.82,1374.023a5.634,5.634,0,0,0,5.633,5.635h28.165a5.634,5.634,0,0,0,0-11.267h-28.165a5.633,5.633,0,0,0-5.633,5.632Zm0,0" transform="translate(-1089.124 -1230.385)" fill="#4e4e4e"/>
      <path id="Path_225" data-name="Path 225" d="M1165.8,1408.671a11.265,11.265,0,1,0,22.53,0v-5.632H1165.8Zm0,0" transform="translate(-1106.659 -1253.766)" fill="#3b6bb2"/>
      <path id="Path_226" data-name="Path 226" d="M1139.82,1304.737a5.632,5.632,0,0,0,5.633,5.632h28.165a5.632,5.632,0,1,0,0-11.265h-28.165a5.632,5.632,0,0,0-5.633,5.633Zm0,0" transform="translate(-1089.124 -1183.629)" fill="#4e4e4e"/>
      <g id="Group_155" data-name="Group 155" transform="translate(25.365)">
        <path id="Path_247" data-name="Path 247" d="M1148.72,1050.1a45.049,45.049,0,1,0-58.649,58.685,44.979,44.979,0,0,0,33.8,0A45.064,45.064,0,0,0,1148.72,1050.1Z" transform="translate(-1061.922 -996.601)" fill="#96e3fe"/>
        <path id="Path_228" data-name="Path 228" d="M1194.6,960.9a2.816,2.816,0,0,1-2.817-2.815V946.816a2.816,2.816,0,1,1,5.632,0v11.267a2.815,2.815,0,0,1-2.815,2.815Zm0,0" transform="translate(-1149.555 -944)" fill="#14ade2"/>
      </g>
      <path id="Path_229" data-name="Path 229" d="M1055.656,1018.552a2.81,2.81,0,0,1-1.992-.826l-7.968-7.966a2.817,2.817,0,0,1,3.984-3.984l7.967,7.967a2.816,2.816,0,0,1-1.99,4.808Zm0,0" transform="translate(-1025.075 -985.154)" fill="#14ade2"/>
      <path id="Path_230" data-name="Path 230" d="M998,1157.5H986.738a2.817,2.817,0,0,1,0-5.634H998a2.817,2.817,0,0,1,0,5.634Zm0,0" transform="translate(-983.922 -1084.269)" fill="#14ade2"/>
      <path id="Path_231" data-name="Path 231" d="M1047.617,1287.88a2.818,2.818,0,0,1-1.992-4.809l7.968-7.966a2.816,2.816,0,0,1,4.052,3.912c-.023.024-.046.047-.07.07l-7.967,7.967a2.817,2.817,0,0,1-1.992.826Zm0,0" transform="translate(-1025.004 -1166.853)" fill="#14ade2"/>
      <path id="Path_232" data-name="Path 232" d="M1324.983,1287.88a2.823,2.823,0,0,1-1.992-.826l-7.967-7.967a2.816,2.816,0,1,1,3.913-4.052l.07.068,7.969,7.967a2.818,2.818,0,0,1-1.992,4.809Zm0,0" transform="translate(-1206.774 -1166.853)" fill="#14ade2"/>
      <path id="Path_233" data-name="Path 233" d="M1379.089,1157.5h-11.265a2.817,2.817,0,0,1,0-5.634h11.265a2.817,2.817,0,1,1,0,5.634Zm0,0" transform="translate(-1241.084 -1084.269)" fill="#14ade2"/>
      <path id="Path_234" data-name="Path 234" d="M1317.088,1018.409a2.817,2.817,0,0,1-1.99-4.808l7.967-7.967a2.817,2.817,0,0,1,4.052,3.914l-.069.07-7.968,7.966a2.811,2.811,0,0,1-1.992.826Zm0,0" transform="translate(-1206.847 -985.011)" fill="#14ade2"/>
      <path id="Path_235" data-name="Path 235" d="M1214.74,1180.665v36.614H1209.1v-36.614a2.818,2.818,0,0,1,5.635,0Zm0,0" transform="translate(-1135.878 -1101.804)" fill="#3b6bb2"/>
      <path id="Path_236" data-name="Path 236" d="M1180.1,1180.665v36.614h-5.632v-36.614a2.816,2.816,0,1,1,5.632,0Zm0,0" transform="translate(-1112.503 -1101.804)" fill="#3b6bb2"/>
      <path id="Path_237" data-name="Path 237" d="M1220.375,1148.415a2.817,2.817,0,1,1,0-5.634,5.632,5.632,0,1,0-5.632-5.633,2.817,2.817,0,0,1-5.634,0,11.265,11.265,0,1,1,11.266,11.266Zm0,0" transform="translate(-1135.881 -1066.737)" fill="#3b6bb2"/>
      <path id="Path_238" data-name="Path 238" d="M1133.765,1148.415a11.266,11.266,0,1,1,11.266-11.266,2.816,2.816,0,1,1-5.632,0,5.633,5.633,0,1,0-5.633,5.633,2.817,2.817,0,1,1,0,5.634Zm0,0" transform="translate(-1077.436 -1066.737)" fill="#3b6bb2"/>
      <path id="Path_239" data-name="Path 239" d="M1179.464,1183.481H1151.3a2.817,2.817,0,0,1,0-5.634h28.165a2.817,2.817,0,0,1,0,5.634Zm0,0" transform="translate(-1094.971 -1101.804)" fill="#3b6bb2"/>
      <path id="Path_240" data-name="Path 240" d="M1177.281,1165.946a2.817,2.817,0,0,1-2.816-2.816v-8.45a2.816,2.816,0,1,1,5.632,0v8.45a2.815,2.815,0,0,1-2.816,2.816Zm0,0" transform="translate(-1112.503 -1084.269)" fill="#3b6bb2"/>
      <path id="Path_241" data-name="Path 241" d="M1211.925,1165.946a2.816,2.816,0,0,1-2.816-2.816v-8.45a2.817,2.817,0,1,1,5.634,0v8.45a2.817,2.817,0,0,1-2.817,2.816Zm0,0" transform="translate(-1135.881 -1084.269)" fill="#3b6bb2"/>
    </g>
    <g id="Group_157" data-name="Group 157" transform="translate(973.629 1073.823)">
      <path id="Path_242" data-name="Path 242" d="M1028.3,1361.067a3.27,3.27,0,0,1-.345.037q-2.686.006-5.372.007c-1.322,0-2.643-.037-3.961-.135a2.593,2.593,0,0,1-2.367-1.88.65.65,0,0,0-.126-.248,6.457,6.457,0,0,1-1.339-3.046,9.615,9.615,0,0,1,.746-6.386,9,9,0,0,1,2.137-3.381,9.684,9.684,0,0,1,4.8-2.613,15.3,15.3,0,0,1,5.3.081,10.676,10.676,0,0,1,5.812,3.246c.22.224.336.239.573.015a4.9,4.9,0,0,1,6.643-.046,12.073,12.073,0,0,1,3.532,4.861,13.525,13.525,0,0,1,.792,3.37,19.042,19.042,0,0,1,.221,2.653,3.069,3.069,0,0,1-3.071,3.09c-1.929.045-3.86.059-5.787.161-2.395.126-4.79.2-7.187.246-.139,0-.279-.016-.418-.024a4.382,4.382,0,0,0,.079-1.463c0-.349.062-.573.438-.668a2.733,2.733,0,0,0,.664-.315q1.839-1.058,3.671-2.13a.525.525,0,0,1,.39-.072,7.609,7.609,0,0,1,1.655.558,2.16,2.16,0,0,0,.976.252c.2-.016.363-.093.369-.338a.314.314,0,0,0-.322-.343,8.378,8.378,0,0,1-1.779-.624c-.2-.063-.153-.137-.019-.221.307-.193.621-.376.919-.581a1.647,1.647,0,0,0,.557-.473.335.335,0,0,0-.493-.447c-.166.129-.327.264-.5.38-1.171.775-2.379,1.488-3.6,2.181-.843.479-1.64,1.04-2.525,1.448-.22.1-.334.125-.331-.19q.023-2.265.012-4.53a.538.538,0,0,1,.3-.535c.459-.256.912-.523,1.364-.794.2-.12.39-.281.212-.534-.161-.23-.382-.165-.593-.043-.313.183-.637.347-.941.544-.233.151-.294.105-.286-.161.012-.374.009-.749,0-1.124-.008-.224-.134-.4-.366-.392-.211.008-.315.179-.323.391,0,.082,0,.164,0,.246q-.028,2.017-.056,4.035c0,.054-.011.108-.021.211a12.17,12.17,0,0,0-1.512-.937c-.848-.422-1.679-.878-2.521-1.313-.478-.248-.959-.489-1.445-.722a.374.374,0,0,0-.482.074.3.3,0,0,0-.026.36.629.629,0,0,0,.306.224c.99.507,1.98,1.011,2.967,1.522a17.164,17.164,0,0,1,2.557,1.523.451.451,0,0,1,.228.4c-.03.677-.032,1.356-.083,2.032A21.553,21.553,0,0,0,1028.3,1361.067Zm-11.061-10.271a.847.847,0,0,0,.818.969,1.258,1.258,0,0,0,1.082-1.071c.015-.463-.44-.8-1.123-.822C1017.553,1349.855,1017.25,1350.215,1017.237,1350.8Zm2.935-1.477a1.048,1.048,0,0,0,.993-.84.7.7,0,0,0-.808-.831.314.314,0,0,1-.285-.038.451.451,0,0,0-.73.147,1,1,0,0,0,.03,1.063A.834.834,0,0,0,1020.173,1349.319Zm20.812,2.758c-.005.471.183.7.5.717a.721.721,0,0,0,.7-.648c0-.171-.06-.342-.065-.514a.47.47,0,0,0-.368-.452.425.425,0,0,0-.492.175A1.266,1.266,0,0,0,1040.984,1352.077Zm-19.868-.932a.44.44,0,0,0-.353-.493.468.468,0,0,0-.58.273,2.92,2.92,0,0,0-.17.637.4.4,0,0,0,.2.416.412.412,0,0,0,.491-.026A.972.972,0,0,0,1021.116,1351.145Zm18.539,3.077a.692.692,0,0,0,.674-.594c-.006-.279-.364-.731-.582-.736a.624.624,0,0,0-.578.7C1039.17,1353.929,1039.4,1354.223,1039.656,1354.222Zm1.62.118c0,.31.216.578.454.566a.8.8,0,0,0,.627-.743c0-.241-.163-.349-.392-.347C1041.625,1353.818,1041.274,1354.09,1041.275,1354.34Z" transform="translate(-1014.523 -1343.229)" fill="#8fdb89"/>
      <path id="Path_243" data-name="Path 243" d="M1044.439,1376.075a21.553,21.553,0,0,1,.025-2.558c.051-.676.053-1.354.083-2.032a.451.451,0,0,0-.228-.4,17.176,17.176,0,0,0-2.557-1.523c-.987-.511-1.978-1.015-2.967-1.522a.63.63,0,0,1-.306-.224.3.3,0,0,1,.026-.36.375.375,0,0,1,.482-.074c.485.232.967.474,1.445.721.841.436,1.673.891,2.521,1.313a12.193,12.193,0,0,1,1.512.937c.01-.1.02-.157.021-.211q.029-2.017.056-4.035c0-.082,0-.164,0-.246.008-.213.112-.384.323-.392.232-.008.358.168.366.392.013.374.016.749,0,1.123-.009.266.053.312.286.161.3-.2.628-.362.941-.544.21-.123.432-.188.593.042.177.254-.012.414-.212.534-.451.271-.9.538-1.364.794a.539.539,0,0,0-.3.535q.012,2.265-.012,4.53c0,.315.11.291.331.19.885-.408,1.682-.969,2.525-1.448,1.22-.693,2.429-1.406,3.6-2.181.175-.116.336-.251.5-.38a.335.335,0,0,1,.492.447,1.646,1.646,0,0,1-.557.473c-.3.2-.613.387-.919.58-.134.084-.179.158.019.221a8.392,8.392,0,0,0,1.779.624.314.314,0,0,1,.322.343c-.006.245-.168.323-.369.338a2.161,2.161,0,0,1-.976-.252,7.6,7.6,0,0,0-1.654-.558.526.526,0,0,0-.39.072q-1.832,1.07-3.671,2.13a2.737,2.737,0,0,1-.664.316c-.376.1-.442.319-.439.668a4.389,4.389,0,0,1-.079,1.463A.517.517,0,0,1,1044.439,1376.075Z" transform="translate(-1030.664 -1358.236)" fill="#4a8e43"/>
    </g>
    <g id="Group_158" data-name="Group 158" transform="translate(1082.925 1063.747)">
      <path id="Path_244" data-name="Path 244" d="M1362.156,1327.347a45.145,45.145,0,0,1-5.485-.5,10.449,10.449,0,0,1-4.9-2.2,3.233,3.233,0,0,1-.354-4.581,7.183,7.183,0,0,1,3.685-2.253c.266-.071.3-.166.241-.426a2.981,2.981,0,0,1,1.015-2.979,8.353,8.353,0,0,1,4.567-1.991,19.315,19.315,0,0,1,4.962-.044,5.553,5.553,0,0,1,2.882,1.29,4.444,4.444,0,0,1,1.621,2.439c.054.222.233.168.365.182a9.569,9.569,0,0,1,1.794.335,7.51,7.51,0,0,1,3.659,2.495,3.284,3.284,0,0,1,.049,3.915,6.973,6.973,0,0,1-2.762,2.368c-.749.34-1.446.793-2.206,1.121a10.5,10.5,0,0,1-3.4.758,38.808,38.808,0,0,1-4.219.166c-.322-.01-.644-.03-.966-.045,0-.233.011-.468-.014-.7a.437.437,0,0,1,.3-.482,4.6,4.6,0,0,0,.863-.544c.592-.464,1.181-.932,1.773-1.4a.606.606,0,0,1,.383-.17c.618,0,1.235-.066,1.854-.049.412.012.826,0,1.238,0,.179,0,.309-.065.317-.25.008-.2-.143-.245-.312-.245h-2.492c.02-.106.083-.127.131-.164.959-.74,1.984-1.384,2.973-2.081a2.168,2.168,0,0,0,.615-.511.26.26,0,0,0-.373-.361,10.981,10.981,0,0,1-1.456,1.056,14.211,14.211,0,0,1-1.43.948l-.023-.023a.962.962,0,0,1,.133-.35,4.86,4.86,0,0,0,.412-1.523c.017-.179,0-.357-.234-.378s-.281.141-.3.326a4.11,4.11,0,0,1-.294,1.195,3.375,3.375,0,0,0-.417,1.266c0,.089-.085.129-.149.179-.642.5-1.28,1.011-1.926,1.508a9.692,9.692,0,0,1-1.338.99c-.211.111-.254.064-.251-.158q.016-1.1,0-2.208a8.776,8.776,0,0,0-.061-.911c-.019-.167-.1-.322-.309-.3s-.225.174-.218.339c0,.045,0,.09,0,.134a22.434,22.434,0,0,1,.047,2.338c0,.055.034.126-.042.166-.333-.218-.563-.555-.89-.775-.832-.561-1.664-1.121-2.469-1.721a.416.416,0,0,1-.2-.424c.064-.569.107-1.14.174-1.708a2.906,2.906,0,0,0,.041-.534.243.243,0,0,0-.47-.077.734.734,0,0,0-.057.207c-.06.587-.126,1.174-.167,1.763-.016.226-.053.272-.252.134a16.27,16.27,0,0,1-1.707-1.262c-.129-.118-.29-.227-.445-.05s-.042.332.094.466c.032.031.07.056.1.084,1.189.971,2.51,1.757,3.745,2.665a19.131,19.131,0,0,1,2.346,1.832c.1.1.209.185.2.357C1362.151,1326.45,1362.157,1326.9,1362.156,1327.347Z" transform="translate(-1350.626 -1312.241)" fill="#8fdb89"/>
      <path id="Path_245" data-name="Path 245" d="M1377.38,1337.826a14.23,14.23,0,0,0,1.43-.948,10.977,10.977,0,0,0,1.456-1.056.26.26,0,0,1,.373.361,2.166,2.166,0,0,1-.615.511c-.988.7-2.014,1.341-2.973,2.081-.048.037-.112.058-.131.164h2.492c.169,0,.32.043.312.245-.008.185-.138.252-.317.25-.413,0-.826.009-1.238,0-.62-.017-1.236.046-1.854.049a.607.607,0,0,0-.383.17c-.591.465-1.181.933-1.773,1.4a4.6,4.6,0,0,1-.863.544.437.437,0,0,0-.3.482c.025.23.011.466.014.7-.043,1.453.063,2.9.037,4.357-.041,2.376-.019,4.752.016,7.127.007.519.054,1.038.083,1.557,0,.054.009.107.008.161,0,.163-.071.289-.244.3s-.26-.115-.275-.272c-.028-.294-.045-.589-.058-.885-.1-2.339-.063-4.679-.056-7.019.006-1.749-.028-3.5-.047-5.245,0-.045-.009-.089-.014-.134,0-.448-.006-.9.006-1.345,0-.172-.1-.257-.2-.357a19.116,19.116,0,0,0-2.346-1.832c-1.235-.908-2.556-1.694-3.745-2.665-.034-.028-.073-.053-.1-.084-.135-.134-.251-.287-.094-.466s.316-.067.445.05a16.27,16.27,0,0,0,1.707,1.262c.2.139.236.092.252-.134.041-.589.107-1.176.167-1.763a.729.729,0,0,1,.057-.207.243.243,0,0,1,.47.077,2.929,2.929,0,0,1-.041.534c-.067.568-.11,1.139-.174,1.708a.416.416,0,0,0,.2.424c.805.6,1.638,1.159,2.469,1.72.327.22.557.557.89.775.077-.04.044-.112.042-.166a22.433,22.433,0,0,0-.047-2.338c-.006-.044,0-.09,0-.135-.008-.165.015-.318.218-.338s.289.134.308.3a8.742,8.742,0,0,1,.061.91q.011,1.1,0,2.208c0,.223.04.269.251.159a9.694,9.694,0,0,0,1.338-.99c.646-.5,1.283-1.005,1.926-1.508.064-.05.149-.09.149-.179a3.37,3.37,0,0,1,.417-1.267,4.107,4.107,0,0,0,.294-1.195c.017-.185.064-.348.3-.326s.251.2.234.379a4.857,4.857,0,0,1-.412,1.523.965.965,0,0,0-.133.35l-.017.04Z" transform="translate(-1360.933 -1327.611)" fill="#4a8e43"/>
      <path id="Path_246" data-name="Path 246" d="M1401.123,1343.607l-.04.017.016-.04Z" transform="translate(-1384.675 -1333.391)" fill="#88bc6f"/>
    </g>
  </g>
</svg>
