<svg xmlns="http://www.w3.org/2000/svg" width="11.665" height="14.418" viewBox="0 0 11.665 14.418">
  <g id="location" transform="translate(-48.886)">
    <g id="Group_59" data-name="Group 59" transform="translate(48.886)">
      <g id="Group_58" data-name="Group 58">
        <path id="Path_164" data-name="Path 164" d="M59.5,2.507a5.822,5.822,0,0,0-9.572,0,5.822,5.822,0,0,0-.678,5.364,4.585,4.585,0,0,0,.845,1.4l4.235,4.974a.5.5,0,0,0,.768,0l4.234-4.973a4.59,4.59,0,0,0,.845-1.393A5.824,5.824,0,0,0,59.5,2.507Zm-.268,5.015a3.6,3.6,0,0,1-.665,1.089l0,0-3.851,4.523L50.865,8.611A3.6,3.6,0,0,1,50.2,7.518a4.816,4.816,0,0,1,.563-4.438,4.813,4.813,0,0,1,7.913,0A4.817,4.817,0,0,1,59.237,7.522Z" transform="translate(-48.886 0)" fill="#707070"/>
      </g>
    </g>
    <g id="Group_61" data-name="Group 61" transform="translate(51.895 2.991)">
      <g id="Group_60" data-name="Group 60">
        <path id="Path_165" data-name="Path 165" d="M158.577,106.219a2.823,2.823,0,1,0,2.823,2.823A2.826,2.826,0,0,0,158.577,106.219Zm0,4.638a1.815,1.815,0,1,1,1.815-1.815A1.817,1.817,0,0,1,158.577,110.857Z" transform="translate(-155.754 -106.219)" fill="#707070"/>
      </g>
    </g>
  </g>
</svg>
