<svg width="27" height="26" viewBox="0 0 27 26" fill="none" xmlns="http://www.w3.org/2000/svg">
<path fill-rule="evenodd" clip-rule="evenodd" d="M26.0609 10.075L23.4609 23.075C23.1359 24.7 21.6734 26 20.0484 26H6.23594C4.61094 26 3.14844 24.7 2.82344 23.075L0.0609375 10.075C-0.101562 9.2625 0.0609375 8.2875 0.548438 7.6375C1.19844 6.825 2.17344 6.5 2.98594 6.5H6.56094C6.56094 2.925 9.48594 0 13.0609 0C16.6359 0 19.5609 2.925 19.5609 6.5H23.1359C23.9484 6.5 24.9234 6.825 25.4109 7.6375C26.0609 8.2875 26.2234 9.1 26.0609 10.075ZM5.91094 22.425C5.91094 22.5875 6.07344 22.75 6.23594 22.75H19.8859C20.0484 22.75 20.2109 22.5875 20.2109 22.425L20.8609 19.5H5.26094L5.91094 22.425ZM13.0609 3.25C11.2734 3.25 9.81094 4.7125 9.81094 6.5H16.3109C16.3109 4.7125 14.8484 3.25 13.0609 3.25ZM3.31094 9.75L4.61094 16.25H21.5109L22.8109 9.75H3.31094Z" fill="#269116"/>
</svg>
