<svg width="28" height="28" viewBox="0 0 28 28" fill="none" xmlns="http://www.w3.org/2000/svg">
<g filter="url(#filter0_d)">
<path fill-rule="evenodd" clip-rule="evenodd" d="M18.3899 5.61019H16.7506C16.0584 5.61019 15.512 5.06374 15.512 4.37157C15.512 3.67941 16.0584 3.13296 16.7506 3.13296H18.3535V1.53004C18.3535 0.837876 18.8999 0.291428 19.5921 0.291428C20.2843 0.291428 20.8307 0.837876 20.8307 1.53004V3.13296H22.4336C23.1258 3.13296 23.6723 3.67941 23.6723 4.37157C23.6723 5.06374 23.1258 5.61019 22.4336 5.61019H20.8307V7.2131C20.8307 7.90527 20.2843 8.45172 19.5921 8.45172C18.8999 8.45172 18.3535 7.90527 18.3535 7.2131V5.61019H18.3899Z" fill="#269116"/>
<path fill-rule="evenodd" clip-rule="evenodd" d="M21.4863 20H17.7341C16.3497 20 15.2204 18.8707 15.2204 17.4863V13.7341C15.2204 12.3497 16.3497 11.2204 17.7341 11.2204H21.4863C22.8707 11.2204 24 12.3497 24 13.7341V17.4863C24 18.8707 22.8707 20 21.4863 20ZM21.4863 13.7341H17.7341V17.4863H21.4863V13.7341ZM10.2659 20H6.51366C5.12933 20 4 18.8707 4 17.4863V13.7341C4 12.3497 5.12933 11.2204 6.51366 11.2204H10.2659C11.6503 11.2204 12.7796 12.3497 12.7796 13.7341V17.4863C12.7432 18.8707 11.6138 20 10.2659 20ZM10.2659 13.7341H6.51366V17.4863H10.2659V13.7341ZM10.2659 8.74317H6.51366C5.12933 8.74317 4 7.61384 4 6.26594V2.51366C4 1.12933 5.12933 0 6.51366 0H10.2659C11.6138 0 12.7432 1.12933 12.7432 2.51366V6.26594C12.7432 7.61384 11.6138 8.74317 10.2659 8.74317ZM10.2659 2.51366H6.51366V6.26594H10.2659V2.51366Z" fill="#269116"/>
</g>
<defs>
<filter id="filter0_d" x="0" y="0" width="28" height="28" filterUnits="userSpaceOnUse" color-interpolation-filters="sRGB">
<feFlood flood-opacity="0" result="BackgroundImageFix"/>
<feColorMatrix in="SourceAlpha" type="matrix" values="0 0 0 0 0 0 0 0 0 0 0 0 0 0 0 0 0 0 127 0"/>
<feOffset dy="4"/>
<feGaussianBlur stdDeviation="2"/>
<feColorMatrix type="matrix" values="0 0 0 0 0 0 0 0 0 0 0 0 0 0 0 0 0 0 0.25 0"/>
<feBlend mode="normal" in2="BackgroundImageFix" result="effect1_dropShadow"/>
<feBlend mode="normal" in="SourceGraphic" in2="effect1_dropShadow" result="shape"/>
</filter>
</defs>
</svg>
