<svg width="16" height="14" viewBox="0 0 16 14" fill="none" xmlns="http://www.w3.org/2000/svg">
<path fill-rule="evenodd" clip-rule="evenodd" d="M15 8H14C13.4 8 13 7.6 13 7C13 6.4 13.4 6 14 6H15C15.6 6 16 6.4 16 7C16 7.6 15.6 8 15 8ZM15 3H7.7C7.4 3.6 6.7 4 6 4C4.9 4 4 3.1 4 2C4 0.9 4.9 0 6 0C6.7 0 7.4 0.4 7.7 1H15C15.6 1 16 1.4 16 2C16 2.6 15.6 3 15 3ZM2 3H1C0.4 3 0 2.6 0 2C0 1.4 0.4 1 1 1H2C2.6 1 3 1.4 3 2C3 2.6 2.6 3 2 3ZM1 6H8.3C8.7 5.4 9.3 5 10 5C11.1 5 12 5.9 12 7C12 8.1 11.1 9 10 9C9.3 9 8.6 8.6 8.3 8H1C0.4 8 0 7.6 0 7C0 6.4 0.4 6 1 6ZM1 11H2C2.6 11 3 11.4 3 12C3 12.6 2.6 13 2 13H1C0.4 13 0 12.6 0 12C0 11.4 0.4 11 1 11ZM7.7 11H15C15.6 11 16 11.4 16 12C16 12.6 15.6 13 15 13H7.7C7.3 13.6 6.7 14 6 14C4.9 14 4 13.1 4 12C4 10.9 4.9 10 6 10C6.7 10 7.4 10.4 7.7 11Z" fill="#269116"/>
</svg>
