<svg width="18" height="14" viewBox="0 0 18 14" fill="none" xmlns="http://www.w3.org/2000/svg">
<g clip-path="url(#clip0)">
<path fill-rule="evenodd" clip-rule="evenodd" d="M11.9131 12.25C12.4348 12.25 12.7826 11.9 12.7826 11.375C12.7826 10.85 12.4348 10.5 11.9131 10.5H9.30438C8.78264 10.5 8.43481 10.85 8.43481 11.375C8.43481 11.9 8.78264 12.25 9.30438 12.25H11.9131ZM14.5218 7.875C15.0435 7.875 15.3913 7.525 15.3913 7C15.3913 6.475 15.0435 6.125 14.5218 6.125H9.30438C8.78264 6.125 8.43481 6.475 8.43481 7C8.43481 7.525 8.78264 7.875 9.30438 7.875H14.5218ZM9.30438 3.5H17.1305C17.6522 3.5 18 3.15 18 2.625C18 2.1 17.6522 1.75 17.1305 1.75H9.30438C8.78264 1.75 8.43481 2.1 8.43481 2.625C8.43481 3.0625 8.8696 3.5 9.30438 3.5Z" fill="#269116"/>
<path fill-rule="evenodd" clip-rule="evenodd" d="M5.47826 9.8875C5.65217 9.7125 5.82609 9.625 6.08696 9.625C6.34783 9.625 6.52174 9.7125 6.69565 9.8875C7.04348 10.2375 7.04348 10.7625 6.69565 11.1125L4.43478 13.65C4.17391 13.825 3.82609 14 3.47826 14C3.13043 14 2.78261 13.825 2.52174 13.65L0.26087 11.1125C-0.0869565 10.7625 -0.0869565 10.2375 0.26087 9.8875C0.434783 9.7125 0.608696 9.625 0.869565 9.625C1.13043 9.625 1.30435 9.7125 1.47826 9.8875L2.6087 11.1125V2.8875L1.47826 4.1125C1.30435 4.2875 1.13043 4.375 0.869565 4.375C0.608696 4.375 0.434783 4.2875 0.26087 4.1125C-0.0869565 3.7625 -0.0869565 3.2375 0.26087 2.8875L2.52174 0.35C2.78261 0.175 3.13043 0 3.47826 0C3.82609 0 4.17391 0.175 4.43478 0.35L6.69565 2.8875C7.04348 3.2375 7.04348 3.7625 6.69565 4.1125C6.52174 4.2875 6.34783 4.375 6.08696 4.375C5.82609 4.375 5.65217 4.2875 5.47826 4.1125L4.34783 2.8875V11.2L5.47826 9.8875Z" fill="#269116"/>
</g>
<defs>
<clipPath id="clip0">
<rect width="18" height="14" fill="white"/>
</clipPath>
</defs>
</svg>
