<svg width="34" height="34" viewBox="0 0 34 34" fill="none" xmlns="http://www.w3.org/2000/svg">
<path d="M32.7569 15.2067H30.4467C30.1566 13.9524 29.5454 12.7915 28.6959 11.8378C28.3437 11.4439 27.95 11.1226 27.5149 10.8634C28.468 10.1171 29.0274 8.96646 29.0274 7.75366V7.05915H26.1578C24.925 7.05915 23.8062 7.6189 23.05 8.57256V7.76402C23.05 6.65488 23.9512 5.74268 25.0701 5.74268H25.2255V4.33293H25.0701C23.1846 4.33293 21.6514 5.86707 21.6514 7.75366V10.5524C20.025 10.0549 18.2639 10.5317 17.1243 11.8067C17.114 11.8171 17.114 11.8171 17.1036 11.8274C17.1347 11.5683 17.1554 11.2988 17.1554 11.0189C17.1554 9.54695 16.5856 8.15793 15.5497 7.10061L17.3833 4.40549C17.4247 4.34329 17.4662 4.27073 17.5076 4.19817C17.9634 3.28598 17.5905 2.1872 16.6892 1.7311L16.5545 1.65854C16.1194 1.44085 15.6222 1.39939 15.156 1.55488C14.6898 1.71037 14.3065 2.04207 14.089 2.4878C14.0579 2.55 14.0268 2.6122 14.0061 2.68476L13.0012 5.45244L13.3534 1.90732C13.3638 1.85549 13.3638 1.79329 13.3638 1.7311C13.3638 0.777439 12.5868 0 11.6338 0H11.5302C10.5771 0 9.80012 0.777439 9.80012 1.7311C9.80012 1.79329 9.80012 1.85549 9.81048 1.90732L10.1627 5.4628L9.13711 2.67439C9.10603 2.60183 9.08531 2.53963 9.05423 2.46707C8.83668 2.03171 8.45338 1.7 7.9872 1.54451C7.52102 1.38902 7.02377 1.42012 6.58867 1.64817L6.45399 1.72073C5.55271 2.17683 5.17977 3.28598 5.63559 4.1878C5.67703 4.26037 5.71846 4.33293 5.7599 4.39512L7.59354 7.10061C6.55759 8.15793 5.98781 9.55732 5.98781 11.05C5.98781 11.4335 6.02925 11.8171 6.10177 12.1902L6.7337 15.2067H6.1432C5.50091 15.2067 4.97258 15.6939 4.91042 16.3159C4.76539 16.2951 4.64107 16.2951 4.51676 16.2951H1.62645V16.9896C1.62645 18.2024 2.18586 19.3427 3.13894 20.0994C2.70384 20.3585 2.31018 20.6799 1.95795 21.0738C0.694089 22.4939 0 24.3287 0 26.236C0 28.3713 0.849482 30.3512 2.38269 31.8335C3.83303 33.2329 5.74954 34 7.75929 34C7.86289 34 7.96648 34 8.07008 33.9896C9.95551 33.9171 11.7477 33.15 13.1255 31.8232H28.9549C30.5399 31.8232 31.8245 30.5378 31.8245 28.9518V18.7726H32.7569C33.4406 18.7726 34 18.2128 34 17.5287V16.4402C34 15.7561 33.4406 15.2067 32.7569 15.2067ZM8.46374 17.5287V16.9896C8.46374 16.8652 8.4741 16.7409 8.50518 16.6061H32.6015V17.3835H30.426V21.7372H14.0786C13.8921 21.4677 13.716 21.25 13.5399 21.053C12.2864 19.6537 10.287 19.2183 8.56734 19.9543C8.53626 19.9646 8.50518 19.9854 8.46374 19.9957V18.6378H8.30835V17.5494H8.46374V17.5287ZM4.5064 17.6841C5.65631 17.6841 6.66118 18.4616 6.97197 19.55H5.59415C4.44424 19.55 3.43937 18.7726 3.12858 17.6841H4.5064ZM3.00427 22.0067C3.56368 21.3744 4.33029 20.9701 5.04509 20.9079C5.25229 20.939 5.41804 20.9494 5.59415 20.9494H7.0652V22.0793C6.6301 21.872 6.2468 21.5506 6.08105 21.3848L5.96709 21.2707L4.98294 22.2555L5.09689 22.3695C5.23157 22.5043 6.42291 23.6652 7.76965 23.6652C9.11639 23.6652 10.3077 22.5043 10.4424 22.3695L10.5564 22.2555L9.57221 21.2707L9.45826 21.3848C9.2925 21.5506 8.9092 21.872 8.4741 22.0793V21.4262C8.71237 21.3848 8.92992 21.3122 9.12675 21.2293C10.2767 20.7317 11.6648 21.0427 12.5143 21.9756C13.6332 23.2195 14.2133 24.8366 14.1408 26.5262C13.9957 29.8018 11.3126 32.4762 8.039 32.6006C6.27788 32.6628 4.63071 32.0305 3.37721 30.828C2.11335 29.6152 1.42962 27.9878 1.42962 26.236C1.39854 24.6707 1.96831 23.1677 3.00427 22.0067ZM15.674 11.9L14.9902 15.1963H9.55149C9.84156 15.0409 10.1523 14.9683 10.4735 14.9683H10.6289V13.5689H10.4735C9.54113 13.5689 8.66057 13.9421 8.01828 14.6159L7.45887 11.9C7.39671 11.6098 7.37599 11.3195 7.37599 11.0085C7.37599 8.69695 9.25107 6.81037 11.5716 6.81037C13.8818 6.81037 15.7672 8.70732 15.7672 11.0396C15.7569 11.3299 15.7258 11.6201 15.674 11.9ZM6.28824 16.7201V16.5957H7.08592C7.0652 16.7305 7.0652 16.8549 7.0652 16.9793V17.228C6.82693 17.0311 6.56795 16.8652 6.28824 16.7201ZM15.4253 27.4799H30.426V28.9518C30.426 29.7604 29.7629 30.4238 28.9549 30.4238H14.2858C14.8659 29.5323 15.2596 28.5165 15.4253 27.4799ZM30.426 23.1262V26.0805H15.5082C15.4875 25.0439 15.27 24.0488 14.8763 23.1262H30.426ZM21.5375 11.9829C21.5686 11.9933 21.61 12.014 21.6411 12.0244V12.8433C21.206 12.636 20.8227 12.3146 20.6569 12.1488L20.543 12.0348L19.5588 13.0195L19.6728 13.1335C19.8074 13.2683 20.9988 14.4293 22.3455 14.4293C23.6923 14.4293 24.8836 13.2683 25.0183 13.1335L25.1322 13.0195L24.1481 12.0348L24.0341 12.1488C23.8684 12.3146 23.4851 12.636 23.05 12.8433V11.7134H25.0701C25.2358 11.7134 25.4119 11.703 25.6191 11.672C26.3339 11.7238 27.1005 12.1384 27.66 12.7707C28.2815 13.4652 28.7477 14.3152 29.0067 15.2171H16.7824C17.0518 14.3049 17.518 13.4549 18.1603 12.75C18.9994 11.7963 20.3876 11.4854 21.5375 11.9829ZM25.0701 10.314H23.6923C24.003 9.22561 25.0079 8.44817 26.1578 8.44817H27.5356C27.2249 9.53658 26.2096 10.314 25.0701 10.314ZM16.0573 2.96463C16.1609 3.01646 16.2438 3.10976 16.2748 3.22378C16.3163 3.3378 16.3059 3.45183 16.2541 3.55549C16.2438 3.57622 16.2334 3.59695 16.223 3.60732L14.4516 6.21951C14.379 6.17805 14.3065 6.13659 14.234 6.09512L15.301 3.15122C15.3114 3.14085 15.3114 3.12012 15.3218 3.09939C15.3736 2.99573 15.4668 2.9128 15.5807 2.88171C15.6947 2.84024 15.8087 2.85061 15.9122 2.90244L16.0573 2.96463ZM11.5094 1.37866H11.613C11.6959 1.37866 11.7788 1.40976 11.841 1.47195C11.9135 1.54451 11.9445 1.6378 11.9445 1.75183L11.582 5.41098C11.5716 5.41098 11.5612 5.41098 11.5405 5.41098L11.1676 1.7C11.1779 1.52378 11.3333 1.37866 11.5094 1.37866ZM7.07556 2.96463L7.21024 2.89207C7.31383 2.84024 7.43815 2.82988 7.54174 2.87134C7.6557 2.9128 7.74893 2.98537 7.80073 3.10976C7.81109 3.12012 7.81109 3.14085 7.82145 3.15122L8.88848 6.09512C8.81597 6.13659 8.74345 6.17805 8.67093 6.21951L6.90981 3.61768C6.89945 3.59695 6.88909 3.58659 6.87873 3.56585C6.82693 3.46219 6.81657 3.3378 6.85801 3.23415C6.88909 3.10976 6.97197 3.01646 7.07556 2.96463Z" fill="#269116"/>
</svg>
