<svg width="16" height="16" viewBox="0 0 16 16" fill="none" xmlns="http://www.w3.org/2000/svg">
<path fill-rule="evenodd" clip-rule="evenodd" d="M14 16H11C9.9 16 9 15.1 9 14V11C9 9.9 9.9 9 11 9H14C15.1 9 16 9.9 16 11V14C16 15.1 15.1 16 14 16ZM14 11H11V14H14V11ZM14 7H11C9.9 7 9 6.1 9 5V2C9 0.9 9.9 0 11 0H14C15.1 0 16 0.9 16 2V5C16 6.1 15.1 7 14 7ZM14 2H11V5H14V2ZM5 16H2C0.9 16 0 15.1 0 14V11C0 9.9 0.9 9 2 9H5C6.1 9 7 9.9 7 11V14C7 15.1 6.1 16 5 16ZM5 11H2V14H5V11ZM5 7H2C0.9 7 0 6.1 0 5V2C0 0.9 0.9 0 2 0H5C6.1 0 7 0.9 7 2V5C7 6.1 6.1 7 5 7ZM5 2H2V5H5V2Z" fill="white"/>
</svg>
