<svg width="28" height="26" viewBox="0 0 28 26" fill="none" xmlns="http://www.w3.org/2000/svg">
<path fill-rule="evenodd" clip-rule="evenodd" d="M25.3551 15.6373C24.3059 17.1788 23.0819 18.5491 21.8578 19.9194C20.6338 21.2897 19.4098 22.4887 18.0109 23.6877C17.3114 24.3728 16.612 24.8866 16.2622 25.2292C15.0382 26.2569 13.1147 26.2569 11.7158 25.2292C11.3661 24.8866 10.6666 24.3728 9.96718 23.6877C8.74314 22.3174 7.34424 21.1184 6.1202 19.7481C4.89616 18.3778 3.67212 17.0076 2.62294 15.6373C1.04918 13.5819 0.174863 11.1839 0 8.61461C0 6.38791 0.874314 4.16121 2.44808 2.44836C5.59561 -0.463476 10.6666 -0.806045 13.989 1.93451C17.3114 -0.806045 22.3824 -0.634761 25.53 2.44836C27.2786 4.16121 28.1529 6.38791 27.978 8.61461C27.8032 11.1839 26.9289 13.5819 25.3551 15.6373ZM22.907 4.84635C20.9835 2.96222 17.6611 2.96222 15.7376 4.84635L13.989 6.55919L12.2404 4.84635C10.3169 2.96222 6.99451 2.96222 5.07102 4.84635C4.02184 5.87406 3.49726 7.24433 3.49726 8.61461C3.49726 13.7531 13.989 22.3174 13.989 22.3174C13.989 22.3174 24.4808 13.7531 24.4808 8.61461C24.4808 7.24433 23.9562 5.87406 22.907 4.84635Z" fill="#E27575"/>
</svg>
