<svg width="16" height="16" viewBox="0 0 16 16" fill="none" xmlns="http://www.w3.org/2000/svg">
<path fill-rule="evenodd" clip-rule="evenodd" d="M11.9546 14H3.95464V9C3.95464 8.4 3.55464 8 2.95464 8C2.35464 8 1.95464 8.4 1.95464 9V14C1.95464 15.1 2.85464 16 3.95464 16H11.9546C13.0546 16 13.9546 15.1 13.9546 14V9C13.9546 8.4 13.5546 8 12.9546 8C12.3546 8 11.9546 8.4 11.9546 9V14ZM14.3546 7.8C14.5546 7.9 14.7546 8 15.0546 8C15.3546 8 15.5546 7.8 15.7546 7.6C16.0546 7.2 16.0546 6.5 15.6546 6.1L8.65464 0.3C8.25464 -0.1 7.65464 -0.1 7.25464 0.3L0.35464 6.1C-0.0453602 6.5 -0.14536 7.1 0.25464 7.6C0.35464 7.8 0.55464 7.9 0.85464 8C1.15464 8 1.35464 7.9 1.55464 7.8L7.95464 2.3L14.3546 7.8ZM7.95464 11C9.05464 11 9.95464 10.1 9.95464 9C9.95464 7.9 9.05464 7 7.95464 7C6.85464 7 5.95464 7.9 5.95464 9C5.95464 10.1 6.85464 11 7.95464 11Z" fill="white"/>
</svg>
