<svg width="14" height="12" viewBox="0 0 14 12" fill="none" xmlns="http://www.w3.org/2000/svg">
<path fill-rule="evenodd" clip-rule="evenodd" d="M12.25 12H1.75C0.7875 12 0 11.2286 0 10.2857V1.71429C0 1.28571 0.175 0.857143 0.525 0.514286C0.875 0.171429 1.3125 0 1.75 0H12.25C13.2125 0 14 0.771429 14 1.71429V10.2857C14 10.7143 13.825 11.1429 13.475 11.4857C13.125 11.8286 12.6875 12 12.25 12ZM12.25 10.2857V3L7.9625 7.37143C7.7 7.54286 7.35 7.71429 7 7.71429C6.65 7.71429 6.3 7.54286 6.0375 7.37143L1.75 3V10.2857H12.25ZM11.025 1.71429H2.975L7 5.82857L11.025 1.71429Z" fill="#A7A7A7"/>
</svg>
