<svg width="12" height="17" viewBox="0 0 12 17" fill="none" xmlns="http://www.w3.org/2000/svg">
<path fill-rule="evenodd" clip-rule="evenodd" d="M6 16.5C4 16.5 0 10 0 6.5C0 3.2 2.7 0.5 6 0.5C9.3 0.5 12 3.2 12 6.5C12 10 8 16.5 6 16.5ZM6 2.5C3.8 2.5 2 4.3 2 6.5C2.2 8.4 2.9 10.2 4 11.8C4.5 12.6 5 13.3 5.6 13.9C5.8 14.2 6 14.4 6 14.4C6 14.4 6.2 14.2 6.5 13.9C7 13.3 7.6 12.6 8 11.8C9.1 10.2 9.8 8.4 10 6.5C10 4.3 8.2 2.5 6 2.5ZM6 8.5C4.9 8.5 4 7.6 4 6.5C4 5.4 4.9 4.5 6 4.5C7.1 4.5 8 5.4 8 6.5C8 7 7.8 7.5 7.4 7.9C7 8.3 6.5 8.5 6 8.5Z" fill="#A7A7A7"/>
</svg>
