<svg width="19" height="19" viewBox="0 0 19 19" fill="none" xmlns="http://www.w3.org/2000/svg">
<path fill-rule="evenodd" clip-rule="evenodd" d="M16.625 19H2.375C1.06875 19 0 17.9312 0 16.625V13.0625C0 11.7563 1.06875 10.6875 2.375 10.6875H16.625C17.9312 10.6875 19 11.7563 19 13.0625V16.625C19 17.9312 17.9312 19 16.625 19ZM16.625 13.0625H2.375V16.625H16.625V13.0625ZM16.625 8.3125H2.375C1.06875 8.3125 0 7.24375 0 5.9375V2.375C0 1.06875 1.06875 0 2.375 0H16.625C17.9312 0 19 1.06875 19 2.375V5.9375C19 7.24375 17.9312 8.3125 16.625 8.3125ZM16.625 2.375H2.375V5.9375H16.625V2.375Z" fill="#269116"/>
</svg>
