<svg width="16" height="16" viewBox="0 0 16 16" fill="none" xmlns="http://www.w3.org/2000/svg">
<path fill-rule="evenodd" clip-rule="evenodd" d="M0 6.75602C0 6.2774 0.424373 5.8894 0.947865 5.8894H14.218C14.7415 5.8894 15.1658 6.2774 15.1658 6.75602V9.35588C15.1658 9.8345 14.7415 10.2225 14.218 10.2225H0.947865C0.424373 10.2225 0 9.8345 0 9.35588V6.75602ZM1.89573 7.62264V8.48926H13.2701V7.62264H1.89573Z" fill="white"/>
<path fill-rule="evenodd" clip-rule="evenodd" d="M2.3863 9.13928C2.90653 9.13928 3.32826 9.57809 3.32826 10.1194V14.0398H11.8375V10.1194C11.8375 9.57809 12.2592 9.13928 12.7795 9.13928C13.2997 9.13928 13.7214 9.57809 13.7214 10.1194V15.0199C13.7214 15.5612 13.2997 16 12.7795 16H2.3863C1.86607 16 1.44434 15.5612 1.44434 15.0199V10.1194C1.44434 9.57809 1.86607 9.13928 2.3863 9.13928Z" fill="white"/>
<path fill-rule="evenodd" clip-rule="evenodd" d="M8.47347 5.01048C8.48563 5.06757 8.50301 5.08623 8.50886 5.09208C8.5147 5.09792 8.53336 5.1153 8.59045 5.12747C8.65258 5.14071 8.75582 5.14572 8.90046 5.11527C9.19433 5.05338 9.57346 4.86152 9.92294 4.51204C10.2724 4.16256 10.4643 3.78343 10.5262 3.48956C10.5566 3.34492 10.5516 3.24168 10.5384 3.17955C10.5262 3.12246 10.5088 3.1038 10.503 3.09796C10.4971 3.09211 10.4785 3.07473 10.4214 3.06257C10.3593 3.04932 10.256 3.04431 10.1114 3.07477C9.8175 3.13665 9.43837 3.32851 9.08889 3.67799C8.73941 4.02747 8.54755 4.4066 8.48567 4.70047C8.45521 4.84512 8.46022 4.94836 8.47347 5.01048ZM6.63063 4.30985C6.77868 3.60677 7.17708 2.90886 7.74842 2.33752C8.31976 1.76618 9.01767 1.36778 9.72075 1.21974C10.4137 1.07382 11.2424 1.15645 11.8434 1.75749C12.4445 2.35852 12.5271 3.18723 12.3812 3.88018C12.2331 4.58326 11.8348 5.28117 11.2634 5.85251C10.6921 6.42386 9.99416 6.82225 9.29108 6.9703C8.59813 7.11621 7.76942 7.03358 7.16839 6.43255C6.56735 5.83151 6.48472 5.00281 6.63063 4.30985Z" fill="white"/>
<path fill-rule="evenodd" clip-rule="evenodd" d="M6.5717 5.01048C6.55953 5.06757 6.54215 5.08623 6.53631 5.09208C6.53047 5.09792 6.5118 5.1153 6.45472 5.12747C6.39259 5.14071 6.28935 5.14572 6.1447 5.11527C5.85083 5.05338 5.4717 4.86152 5.12222 4.51204C4.77275 4.16256 4.58088 3.78343 4.519 3.48956C4.48854 3.34492 4.49356 3.24168 4.5068 3.17955C4.51897 3.12246 4.53635 3.1038 4.54219 3.09796C4.54804 3.09211 4.5667 3.07473 4.62378 3.06257C4.68591 3.04932 4.78915 3.04431 4.9338 3.07477C5.22767 3.13665 5.6068 3.32851 5.95628 3.67799C6.30576 4.02747 6.49762 4.4066 6.5595 4.70047C6.58996 4.84512 6.58494 4.94836 6.5717 5.01048ZM8.41453 4.30985C8.26648 3.60677 7.86809 2.90886 7.29675 2.33752C6.72541 1.76618 6.0275 1.36778 5.32441 1.21974C4.63146 1.07382 3.80276 1.15645 3.20172 1.75749C2.60068 2.35852 2.51805 3.18723 2.66397 3.88018C2.81202 4.58326 3.21041 5.28117 3.78175 5.85251C4.3531 6.42386 5.05101 6.82225 5.75409 6.9703C6.44704 7.11621 7.27574 7.03358 7.87678 6.43255C8.47782 5.83151 8.56045 5.00281 8.41453 4.30985Z" fill="white"/>
<path fill-rule="evenodd" clip-rule="evenodd" d="M7.76357 5.8894C8.26213 5.8894 8.6663 6.32995 8.6663 6.87338V15.016C8.6663 15.5594 8.26213 16 7.76357 16C7.26501 16 6.86084 15.5594 6.86084 15.016V6.87338C6.86084 6.32995 7.26501 5.8894 7.76357 5.8894Z" fill="white"/>
</svg>
