<svg width="15" height="15" viewBox="0 0 15 15" fill="none" xmlns="http://www.w3.org/2000/svg">
<path d="M9.2843 9.41451L9.28508 9.41373C9.96389 8.75079 10.7415 8.52464 11.5806 8.76716M9.2843 9.41451L11.539 8.91126M9.2843 9.41451L9.2814 9.41738L9.28133 9.41745M9.2843 9.41451L9.28133 9.41745M11.5806 8.76716L11.539 8.91126M11.5806 8.76716C11.5806 8.76716 11.5806 8.76716 11.5806 8.76716L11.539 8.91126M11.5806 8.76716C12.1814 8.94077 12.7967 9.35483 13.513 10.0456C13.9032 10.4218 14.1291 10.9279 14.1486 11.4696C14.1682 12.0113 13.9793 12.5322 13.6173 12.9356L13.6172 12.9357L13.6042 12.9501M11.539 8.91126C12.1055 9.07498 12.6997 9.46976 13.4089 10.1536C13.7711 10.5029 13.9806 10.9721 13.9987 11.475C14.0169 11.9778 13.8418 12.461 13.5057 12.8354L13.4925 12.8501M13.6042 12.9501L13.4925 12.8501M13.6042 12.9501L13.604 12.9504L13.4925 12.8501M13.6042 12.9501C13.5962 12.9591 13.5881 12.9676 13.58 12.9757L13.5798 12.9759C12.8074 13.7483 11.7336 14.15 10.4843 14.15L10.4554 14.15L10.455 14.1499C9.53408 14.1453 8.53734 13.9117 7.49342 13.4615C7.15981 13.3176 7.00605 12.9305 7.14994 12.5969L7.28767 12.6563L13.4737 12.8699C13.4767 12.8669 13.4796 12.864 13.4824 12.861C13.4858 12.8574 13.4892 12.8537 13.4925 12.8501M9.28133 9.41745L8.67595 10.0183C8.23376 9.75968 7.46654 9.24979 6.64167 8.42492L6.64163 8.42488M9.28133 9.41745L6.64163 8.42488M6.64163 8.42488L6.57484 8.35814C6.57483 8.35813 6.57482 8.35811 6.5748 8.3581C5.74988 7.53319 5.24004 6.76589 4.98157 6.32405L5.58246 5.71865L5.58254 5.71857M6.64163 8.42488L5.58254 5.71857M5.58254 5.71857L5.58543 5.71565L5.58544 5.71566M5.58254 5.71857L5.58544 5.71566M5.58544 5.71566L5.58621 5.71486M5.58544 5.71566L5.58621 5.71486M5.58621 5.71486C6.24913 5.0361 6.47527 4.25851 6.23278 3.41932L6.23278 3.41931M5.58621 5.71486L6.23278 3.41931M6.23278 3.41931C6.05915 2.81857 5.64512 2.20331 4.95429 1.48691L4.84632 1.59103M6.23278 3.41931L4.84632 1.59103M4.84632 1.59103L4.95429 1.48691C4.5781 1.0968 4.07209 0.870908 3.53039 0.85138C2.98838 0.831824 2.4677 1.0207 2.06434 1.38277L2.06425 1.38284M4.84632 1.59103L2.06425 1.38284M2.06425 1.38284L2.04971 1.39592C2.0497 1.39593 2.04969 1.39594 2.04968 1.39595C2.04087 1.40386 2.03241 1.41191 2.0243 1.41999L2.02409 1.4202M2.06425 1.38284L2.02409 1.4202M2.02409 1.4202C1.24563 2.19866 0.84379 3.28318 0.850073 4.54498L0.850073 4.54498M2.02409 1.4202L0.850073 4.54498M0.850073 4.54498C0.860759 6.68286 2.03246 9.10606 3.9632 11.0368C4.32872 11.4023 4.74337 11.7633 5.19547 12.1099L5.19548 12.1099L0.850073 4.54498ZM4.00729 2.40015C4.66079 3.07787 4.93749 3.55169 4.99748 3.9101C5.05423 4.24916 4.92034 4.51314 4.64691 4.79367C4.64676 4.79383 4.64661 4.79398 4.64645 4.79414L3.70605 5.74159L3.70605 5.74159L5.99869 11.8969L6.11773 11.9882C6.11773 11.9882 6.11773 11.9882 6.11773 11.9882C6.33882 11.6999 6.28428 11.2869 5.99597 11.0659C5.58837 10.7533 5.21749 10.4305 4.89346 10.1065C3.18525 8.39831 2.17453 6.3131 2.16567 4.53843C2.16113 3.624 2.43525 2.87676 2.94279 2.36212L2.9432 2.36175C2.94324 2.36171 2.94328 2.36168 2.94332 2.36164C3.25232 2.08439 3.71903 2.10124 4.00729 2.40015ZM4.00729 2.40015L4.11527 2.29603L4.00729 2.40015ZM5.64482 9.28868L5.64474 9.2886C4.18836 7.83222 3.60095 6.53768 3.57199 6.4726C3.57199 6.4726 3.57199 6.4726 3.57198 6.47259L3.70902 6.41159L5.64482 9.28868ZM5.64482 9.28868L5.71159 9.35535M5.64482 9.28868L5.71159 9.35535M12.704 10.8847L12.5999 10.9927C11.9222 10.3392 11.4484 10.0624 11.09 10.0024C10.7509 9.94569 10.4869 10.0796 10.2064 10.353C10.2062 10.3531 10.2061 10.3533 10.2059 10.3535L9.25842 11.2939C9.25841 11.2939 9.25841 11.2939 9.25841 11.2939C9.06579 11.4851 8.7754 11.5384 8.52744 11.4279C8.52742 11.4279 8.5274 11.4279 8.52738 11.4279L8.58844 11.2909L12.704 10.8847ZM12.704 10.8847L12.5999 10.9927C12.8988 11.2809 12.9156 11.7477 12.6383 12.0567L12.6379 12.0571C12.1275 12.5606 11.3883 12.8344 10.484 12.8344L12.704 10.8847ZM5.71159 9.35535C5.71162 9.35538 5.71165 9.35541 5.71167 9.35544L5.71159 9.35535ZM8.01448 12.2534L7.95507 12.3911L8.0145 12.2534C8.01449 12.2534 8.01448 12.2534 8.01448 12.2534Z" fill="#A7A7A7" stroke="#A7A7A7" stroke-width="0.3"/>
</svg>
