<svg width="39" height="46" viewBox="0 0 39 46" fill="none" xmlns="http://www.w3.org/2000/svg">
<path fill-rule="evenodd" clip-rule="evenodd" d="M15.6713 6.96503C15.6713 5.04169 17.2305 3.48252 19.1538 3.48252C21.0772 3.48252 22.6364 5.04169 22.6364 6.96503C22.6364 8.88838 21.0772 10.4476 19.1538 10.4476C17.2305 10.4476 15.6713 8.88838 15.6713 6.96503ZM19.1538 0C15.3072 0 12.1888 3.11835 12.1888 6.96503C12.1888 10.8117 15.3072 13.9301 19.1538 13.9301C23.0005 13.9301 26.1189 10.8117 26.1189 6.96503C26.1189 3.11835 23.0005 0 19.1538 0ZM29.6014 5.22377C28.6397 5.22377 27.8601 6.00336 27.8601 6.96503C27.8601 7.9267 28.6397 8.70629 29.6014 8.70629H36.5664C37.5281 8.70629 38.3077 7.9267 38.3077 6.96503C38.3077 6.00336 37.5281 5.22377 36.5664 5.22377H29.6014ZM0 6.96503C0 6.00336 0.779588 5.22377 1.74126 5.22377H8.70629C9.66796 5.22377 10.4476 6.00336 10.4476 6.96503C10.4476 7.9267 9.66796 8.70629 8.70629 8.70629H1.74126C0.779588 8.70629 0 7.9267 0 6.96503ZM17.4126 34.8252C17.4126 33.8715 18.2001 33.0839 19.1538 33.0839C20.1076 33.0839 20.8951 33.8715 20.8951 34.8252L20.8951 38.3077L20.8951 40.049C20.8951 41.0027 20.1076 41.7902 19.1538 41.7902C18.2001 41.7902 17.4126 41.0027 17.4126 40.049V38.3103L17.4126 38.3077L17.4126 38.3051V34.8252ZM24.3776 36.5664V34.8252C24.3776 31.9481 22.0309 29.6014 19.1538 29.6014C16.2768 29.6014 13.9301 31.9481 13.9301 34.8252V36.5664H10.4476V22.114C10.4476 20.4638 11.7575 19.1538 13.4077 19.1538H24.9C26.5502 19.1538 27.8601 20.4638 27.8601 22.114V36.5664H24.3776ZM24.3776 40.0489H29.6014C30.5631 40.0489 31.3427 39.2693 31.3427 38.3077V22.114C31.3427 18.5404 28.4736 15.6713 24.9 15.6713H13.4077C9.83413 15.6713 6.96503 18.5404 6.96503 22.114V38.3077C6.96503 39.2694 7.74462 40.049 8.70629 40.049L13.9301 40.049C13.9301 42.926 16.2768 45.2727 19.1538 45.2727C22.0309 45.2727 24.3776 42.926 24.3776 40.049V40.0489ZM12.1888 22.6364C12.1888 21.6747 12.9684 20.8951 13.9301 20.8951H15.6713C16.633 20.8951 17.4126 21.6747 17.4126 22.6364C17.4126 23.598 16.633 24.3776 15.6713 24.3776H13.9301C12.9684 24.3776 12.1888 23.598 12.1888 22.6364ZM13.9301 26.1189C12.9684 26.1189 12.1888 26.8985 12.1888 27.8601C12.1888 28.8218 12.9684 29.6014 13.9301 29.6014H15.6713C16.633 29.6014 17.4126 28.8218 17.4126 27.8601C17.4126 26.8985 16.633 26.1189 15.6713 26.1189H13.9301Z" fill="#269116"/>
</svg>
