<svg width="31" height="31" viewBox="0 0 31 31" fill="none" xmlns="http://www.w3.org/2000/svg">
<path d="M14.83 31C14.7205 31 14.6201 31 14.5106 30.9909C12.8316 30.8814 11.335 29.9323 10.5229 28.4632C10.0849 27.6693 9.18145 27.2221 8.28718 27.3681C6.61725 27.6236 4.96558 27.0214 3.84317 25.753C2.72988 24.4845 2.34662 22.7599 2.81201 21.1447C3.06752 20.2687 2.73901 19.3196 2.00899 18.7904C0.649319 17.7775 -0.098954 16.1805 0.0105493 14.5015C0.120053 12.8224 1.06908 11.3259 2.53825 10.5137C3.33215 10.0757 3.77929 9.17233 3.63329 8.27805C3.37778 6.60813 3.98005 4.95645 5.23933 3.84317C6.50775 2.72988 8.23243 2.34662 9.8476 2.81201C10.7236 3.06752 11.6727 2.73901 12.2019 2.00899C13.1966 0.649319 14.8026 -0.098954 16.4817 0.0105493C18.1607 0.120053 19.6573 1.06908 20.4694 2.53825C20.9074 3.33215 21.8108 3.77929 22.7051 3.63329C24.375 3.37778 26.0267 3.98005 27.1491 5.24846C28.2624 6.51687 28.6457 8.24155 28.1803 9.85673C27.9248 10.7328 28.2533 11.6818 28.9833 12.211C30.343 13.2057 31.0912 14.8026 30.9817 16.4908C30.8722 18.1699 29.9232 19.6664 28.454 20.4786C27.6601 20.9166 27.213 21.82 27.359 22.7142C27.6145 24.3842 27.0122 26.0358 25.7438 27.1583C24.4754 28.2807 22.7507 28.6548 21.1356 28.1894C20.2595 27.9339 19.3105 28.2624 18.7812 28.9924C17.8505 30.2609 16.3904 31 14.83 31ZM8.60656 24.5941C10.3769 24.5941 12.0468 25.5522 12.9137 27.14C13.2787 27.8062 13.9175 28.2077 14.6749 28.2624C15.4323 28.308 16.1167 27.9887 16.5638 27.3773C17.7775 25.7165 19.9219 24.9864 21.893 25.5613C22.623 25.7712 23.3621 25.607 23.937 25.1051C24.5119 24.6032 24.7674 23.8914 24.6488 23.1431C24.3385 21.1082 25.3332 19.0824 27.1309 18.0877C27.797 17.7227 28.1985 17.0839 28.2533 16.3265C28.2989 15.5692 27.9795 14.8848 27.3681 14.4376C25.7073 13.224 24.9773 11.0795 25.5522 9.10845C25.7621 8.37843 25.5978 7.63928 25.0959 7.06439C24.594 6.49862 23.8823 6.23399 23.134 6.35262C21.0991 6.66288 19.0733 5.66822 18.0786 3.87054C17.7136 3.2044 17.0657 2.80289 16.3174 2.74813C15.56 2.70251 14.8756 3.02189 14.4285 3.63329C13.2148 5.29409 11.0704 6.02411 9.09933 5.44922C8.3693 5.23933 7.63016 5.40359 7.05526 5.90548C6.4895 6.40737 6.22486 7.11914 6.34349 7.86742C6.65375 9.90235 5.6591 11.9282 3.86142 12.9228C3.19527 13.2878 2.79376 13.9357 2.73901 14.684C2.69338 15.4414 3.01277 16.1258 3.62416 16.5729C5.28496 17.7866 6.01498 19.931 5.44009 21.9021C5.23021 22.6321 5.39446 23.3713 5.89635 23.9462C6.39824 24.5211 7.11002 24.7766 7.85829 24.6579C8.1138 24.6123 8.36018 24.5941 8.60656 24.5941Z" fill="#269116"/>
<path d="M14.3007 20.3782L9.61938 15.706L11.5539 13.7715L14.3007 16.5091L19.4473 11.3624L21.3819 13.297L14.3007 20.3782Z" fill="#269116"/>
</svg>
