<svg width="32" height="32" viewBox="0 0 32 32" fill="none" xmlns="http://www.w3.org/2000/svg">
<path d="M23.1194 21.7744C22.9887 21.5972 22.7976 21.4791 22.5864 21.4496C22.3652 21.4102 22.154 21.4594 21.973 21.5874C21.792 21.7153 21.6814 21.9023 21.6411 22.109L20.7662 27.3748C20.6958 27.8078 20.9975 28.2212 21.44 28.2901C21.4802 28.3 21.5305 28.3 21.5707 28.3C21.973 28.3 22.3149 28.0145 22.3752 27.6307L23.2501 22.3748C23.3004 22.1681 23.2501 21.9516 23.1194 21.7744Z" fill="#269116"/>
<path d="M16.0096 21.4397C15.6174 21.4397 15.1951 21.7251 15.1951 22.2369V27.5026C15.1951 27.9455 15.5672 28.2999 16.0096 28.2999C16.4622 28.2999 16.8242 27.9357 16.8242 27.5026V22.2467C16.8242 21.7251 16.4018 21.4397 16.0096 21.4397Z" fill="#269116"/>
<path d="M10.3781 22.119C10.348 21.9025 10.2273 21.7155 10.0463 21.5875C9.86526 21.4596 9.65408 21.4104 9.43284 21.4399C9.2116 21.4793 9.02053 21.5875 8.89985 21.7647C8.76912 21.9419 8.71884 22.1584 8.75907 22.3651L9.63397 27.621C9.66413 27.8375 9.78481 28.0245 9.96582 28.1525C10.1066 28.2509 10.2776 28.3099 10.4485 28.3099C10.4888 28.3099 10.539 28.3099 10.5793 28.3001C10.8005 28.2607 10.9916 28.1525 11.1122 27.9753C11.243 27.7981 11.2933 27.5816 11.253 27.3749L10.3781 22.119Z" fill="#269116"/>
<path d="M31.2349 14.3524H26.1363C26.4079 14.1162 26.6392 13.8308 26.8202 13.506H26.8503C28.0269 13.506 29.0426 12.689 29.2538 11.5276C29.3745 10.878 29.2136 10.2186 28.8113 9.69693C29.1331 9.18512 29.3544 8.6241 29.465 8.02371C29.817 6.08474 28.8918 4.11624 27.1721 3.10247C25.533 2.1379 23.4413 2.21664 21.8825 3.27963C20.4344 1.05523 17.7393 -0.0274439 15.0945 0.58279C13.1134 1.03554 11.5346 2.35444 10.7502 4.09656C10.7301 4.02766 10.71 3.94892 10.6798 3.88002C10.4183 3.15168 9.86524 2.58081 9.15124 2.26585C9.14118 2.21664 9.13113 2.17727 9.12107 2.12806C8.79927 0.7009 7.34111 -0.234136 5.86283 0.0512959C4.44489 0.326885 3.48954 1.64578 3.65044 3.02373C2.86605 3.47648 2.42357 4.30325 2.49396 5.19891C2.56436 6.04537 3.07723 6.76387 3.84151 7.1182C3.07723 8.24024 2.85599 9.63788 3.24819 10.9371L3.25824 10.9765C3.25824 10.9863 3.2683 11.006 3.2683 11.0158L4.32421 14.3327H0.784392C0.351971 14.3327 0 14.6772 0 15.1005V18.5453C0 18.9685 0.351971 19.313 0.784392 19.313H1.16653L2.86605 29.5492C3.09734 30.9665 4.33427 32 5.79243 32H26.2067C27.675 32 28.9018 30.9764 29.1331 29.5492L30.8326 19.313H31.2148C31.6472 19.313 31.9992 18.9685 31.9992 18.5453V15.1005C32.0193 14.6969 31.6673 14.3524 31.2349 14.3524ZM21.259 6.12411C21.7317 4.67726 23.0993 3.70286 24.6581 3.70286C26.0458 3.70286 27.3129 4.49026 27.8962 5.72057C28.4795 6.95088 28.2783 8.40757 27.3833 9.44103C27.1822 9.67725 27.2325 10.0217 27.4839 10.1989C27.8459 10.445 28.0269 10.878 27.9565 11.3013C27.9063 11.5867 27.7353 11.8524 27.4839 12.0198C27.2325 12.1871 26.9308 12.256 26.6291 12.2068C26.5788 12.1969 26.5285 12.1871 26.4783 12.1674C26.1866 12.0788 25.8849 12.2363 25.8045 12.5217C25.6134 13.2304 24.9899 13.7619 24.2357 13.8505C24.7285 12.1871 25.0704 10.4745 25.2614 8.75205L27.1923 7.31505C27.7353 6.89182 27.1118 6.08474 26.5487 6.48828L25.3721 7.36426C25.4425 6.23238 25.4123 5.51387 25.4022 5.44498C25.3922 5.15954 25.1408 4.93317 24.8491 4.95285C24.5575 4.9627 24.3363 5.20876 24.3463 5.49419C24.3765 6.85245 24.286 8.20087 24.0849 9.53945L23.1597 7.91544C23.0189 7.66938 22.6971 7.5808 22.4356 7.71859C22.1842 7.85639 22.0937 8.17134 22.2345 8.41741L23.8033 11.1635C23.6424 11.9509 23.4413 12.7973 23.1798 13.6635C22.6569 13.4075 22.2848 12.9253 22.1742 12.3642C22.0635 11.7934 22.2446 11.2127 22.6468 10.7993C22.868 10.5729 22.8278 10.2087 22.5664 10.0217C21.3194 9.14575 20.7864 7.57095 21.259 6.12411ZM21.9127 14.3524H21.259C21.3194 14.1556 21.3596 13.9587 21.3898 13.7619C21.5306 13.9784 21.7116 14.1753 21.9127 14.3524ZM11.8061 4.94301C12.4195 3.28947 13.8978 2.07885 15.6677 1.77373C17.8499 1.38987 20.0221 2.45286 21.0277 4.39183C19.8512 5.83868 19.7104 7.85639 20.6557 9.45087C20.3339 9.91347 19.9316 10.3072 19.469 10.632C19.2076 10.819 19.1774 11.1733 19.3886 11.4095C20.2232 12.2757 20.354 13.5847 19.7204 14.5985H18.0812C17.8399 13.7028 17.6388 12.8465 17.4678 12.0099L19.6299 8.21072C19.9718 7.61032 19.0567 7.09852 18.7047 7.70875L17.1762 10.3957C16.8443 8.38788 16.7035 6.35049 16.7438 4.31309C16.7739 3.62412 15.718 3.5749 15.6878 4.26388C15.6577 5.25797 15.6778 6.2619 15.7582 7.25599L13.8375 5.81899C13.2743 5.40561 12.6408 6.22253 13.1939 6.64576L15.889 8.64378C16.1002 10.6517 16.4722 12.6398 16.9952 14.5985H15.0845C14.9537 14.3918 14.8532 14.1654 14.7928 13.9292C14.7124 13.6438 14.4107 13.4863 14.1191 13.5749C14.0386 13.6044 13.9582 13.6241 13.8777 13.6339C13.0732 13.7717 12.2788 13.3485 11.9771 12.6103C11.6653 11.8721 11.9268 11.0257 12.5905 10.5729C12.8419 10.3957 12.8922 10.0513 12.6911 9.81504C11.5346 8.45678 11.1927 6.60639 11.8061 4.94301ZM21.0378 10.9961C20.9976 11.1044 20.9573 11.2225 20.9372 11.3308C20.9071 11.2816 20.8769 11.2225 20.8467 11.1733C20.9171 11.1241 20.9775 11.065 21.0378 10.9961ZM10.5893 7.88591C10.7603 8.66347 11.0921 9.4115 11.5648 10.0611C11.2731 10.3662 11.0519 10.7304 10.9212 11.1241L7.78358 11.8131C7.09975 11.9607 7.32099 12.9745 8.01488 12.817L10.8005 12.2166C10.8105 12.2855 10.8105 12.3544 10.8306 12.4331C10.9413 13.0532 11.2731 13.6142 11.7558 14.0276L11.8363 14.5985H5.76227L4.68624 11.193L6.28519 10.8485C6.96902 10.7009 6.74778 9.68709 6.0539 9.83473L4.40466 10.1891C4.16331 8.74221 4.92759 7.31505 6.27514 6.68513C6.74778 7.10836 7.36122 7.33473 8.00482 7.33473C8.19589 7.33473 8.38696 7.31505 8.56798 7.27568C8.90989 7.19694 9.23169 7.05914 9.52332 6.85245C9.95575 7.1182 10.3178 7.47253 10.5893 7.88591ZM3.8214 5.25797C3.70072 4.70679 4.04264 4.14577 4.60579 4.01782C4.6259 4.01782 4.65607 4.00797 4.66613 4.00797C5.00804 3.94892 5.19911 3.60443 5.05832 3.29932C4.87731 2.89577 4.89742 2.43318 5.1086 2.03948C5.31979 1.65562 5.70193 1.38003 6.1444 1.30129C6.58688 1.22255 7.03942 1.3505 7.38133 1.64578C7.71319 1.94105 7.8942 2.36428 7.87409 2.80719C7.86403 3.0631 8.04505 3.28947 8.29646 3.33869C8.8395 3.44695 9.29203 3.83081 9.46299 4.35246C9.63394 4.87411 9.49316 5.44498 9.11102 5.83868L9.10096 5.84852C8.7691 6.18316 8.29646 6.35049 7.82381 6.29143C7.35116 6.23238 6.9288 5.96663 6.68745 5.56309C6.59694 5.40561 6.41593 5.30718 6.23491 5.30718C6.04384 5.30718 5.87288 5.40561 5.78238 5.56309C5.63153 5.81899 5.39018 5.99616 5.09855 6.05521C4.51528 6.18316 3.94207 5.81899 3.8214 5.25797ZM27.6046 29.3228C27.4939 30.002 26.9107 30.4843 26.2067 30.4843H5.79243C5.09855 30.4843 4.50523 29.9921 4.39461 29.3228L2.74537 19.3229H29.2739L27.6046 29.3228ZM30.0985 17.5512C30.0985 17.7284 29.9477 17.876 29.7667 17.876H2.06154C1.88053 17.876 1.72969 17.7284 1.72969 17.5512V16.439C1.72969 16.2619 1.88053 16.1142 2.06154 16.1142H29.7667C29.9477 16.1142 30.0985 16.2619 30.0985 16.439V17.5512Z" fill="#269116"/>
</svg>
